<svg width="99" height="40" viewBox="0 0 99 40" fill="none" xmlns="http://www.w3.org/2000/svg">
<path d="M48.1602 1.34269C48.8674 2.05963 49.221 3.03702 49.221 4.27484V26.6062C48.732 26.726 48.2359 26.8125 47.7359 26.8652C47.0901 26.952 46.4395 26.9952 45.7883 26.9946C45.2048 27.0014 44.6224 26.944 44.0507 26.8235C43.6078 26.752 43.1872 26.5746 42.8223 26.3055C42.4718 26.0312 42.207 25.6565 42.0606 25.2279C41.8725 24.6448 41.7863 24.0316 41.806 23.4172V6.34227H33.6655V26.6062C33.191 26.7238 32.7099 26.8103 32.2249 26.8652C31.5641 26.951 30.8987 26.9943 30.2327 26.9946C29.6626 27.0031 29.0933 26.9457 28.5355 26.8235C28.0775 26.7575 27.6412 26.58 27.2625 26.3055C26.9127 26.0306 26.648 25.6561 26.5008 25.2279C26.3127 24.6448 26.2265 24.0316 26.2463 23.4172V4.27265C26.2463 3.03775 26.5999 2.06036 27.3071 1.34049C28.0143 0.620623 28.9753 0.26142 30.1903 0.262883H45.2727C46.4905 0.262883 47.453 0.622818 48.1602 1.34269Z" fill="#3698D4"/>
<path d="M12.8229 27.2404C9.11437 27.2404 6.05008 25.9843 3.63005 23.4721C1.21002 20.9599 0 17.6927 0 13.6705C0 9.62923 1.20224 6.39787 3.60671 3.97635C6.01119 1.55484 9.08325 0.338228 12.8229 0.326523C16.5796 0.326523 19.6601 1.54313 22.0646 3.97635C24.4691 6.40957 25.6713 9.64386 25.6713 13.6792C25.6713 17.6927 24.4613 20.9562 22.0413 23.4699C19.6212 25.9836 16.5484 27.2404 12.8229 27.2404ZM7.9772 19.368C9.23035 20.8589 10.8456 21.6044 12.8229 21.6044C14.8002 21.6044 16.4204 20.8589 17.6835 19.368C18.9565 17.8785 19.5929 15.9764 19.5929 13.6617C19.5929 11.4011 18.9565 9.53779 17.6835 8.07171C16.4105 6.60563 14.7903 5.87406 12.8229 5.87698C10.8428 5.87698 9.22752 6.60856 7.9772 8.07171C6.72687 9.53486 6.09959 11.4011 6.09534 13.6705C6.09534 15.9778 6.72263 17.877 7.9772 19.368Z" fill="#F7E200"/>
<path d="M25.6713 13.6331C25.6946 15.5258 25.3669 17.4055 24.706 19.1704C24.1039 20.7742 23.1922 22.2341 22.0264 23.4611C20.8655 24.6637 19.4754 25.6032 17.9445 26.2199C16.3184 26.9069 14.5725 27.2387 12.8166 27.1944V0.287019C14.5717 0.236177 16.3185 0.555018 17.9508 1.22417C19.4843 1.80768 20.8803 2.72197 22.0461 3.90635C23.2118 5.09072 24.1207 6.51808 24.7124 8.09366C25.3756 9.85854 25.7013 11.7398 25.6713 13.6331ZM19.5845 13.6331C19.5959 12.5764 19.43 11.5257 19.0944 10.5276C18.7886 9.61951 18.316 8.78111 17.7026 8.05854C17.1121 7.37064 16.3896 6.81752 15.581 6.43445C14.715 6.02925 13.7733 5.82619 12.8229 5.83968C11.8814 5.82656 10.9489 6.0297 10.0924 6.43445C9.28678 6.82258 8.56517 7.37498 7.97085 8.05854C7.34854 8.77479 6.87422 9.61499 6.57696 10.5276C6.2492 11.5275 6.08639 12.5774 6.09536 13.6331C6.08504 14.7184 6.25364 15.7976 6.59393 16.8243C6.8973 17.7455 7.36667 18.599 7.97721 19.3394C8.57975 20.0526 9.32557 20.6211 10.1625 21.0051C10.9995 21.3891 11.9075 21.5794 12.8229 21.5627C13.7644 21.5758 14.697 21.3727 15.5534 20.9679C16.3612 20.5767 17.0832 20.0188 17.675 19.3285C18.3025 18.5966 18.7848 17.7442 19.0944 16.8199C19.4323 15.7943 19.5981 14.7165 19.5845 13.6331Z" fill="#F7E200"/>
<path d="M62.5637 27.1658C58.8552 27.1658 55.7916 25.9097 53.373 23.3975C50.9544 20.8853 49.7443 17.6217 49.7429 13.6068C49.7429 9.56705 50.9452 6.33276 53.3496 3.90393C55.7541 1.4751 58.8255 0.261417 62.5637 0.26288C66.3161 0.26288 69.3967 1.47656 71.8054 3.90393C74.2141 6.3313 75.4163 9.56559 75.4121 13.6068C75.4121 17.6202 74.2021 20.8838 71.782 23.3975C69.362 25.9112 66.2892 27.1673 62.5637 27.1658ZM57.718 19.3043C58.9711 20.7909 60.5864 21.5342 62.5637 21.5342C64.541 21.5342 66.1619 20.7887 67.4264 19.2977C68.6994 17.8068 69.3323 15.9047 69.3252 13.5914C69.3252 11.3309 68.6923 9.46756 67.4264 8.00148C66.1605 6.53541 64.5396 5.80383 62.5637 5.80676C60.5836 5.80676 58.9683 6.53833 57.718 8.00148C56.4677 9.46463 55.8404 11.328 55.8361 13.5914C55.8361 15.9091 56.4634 17.8134 57.718 19.3043Z" fill="#3698D4"/>
<path d="M75.5076 13.5936C75.5291 15.4827 75.2007 17.3586 74.5401 19.12C73.9389 20.7248 73.0271 22.1856 71.8605 23.4128C70.7 24.6148 69.3107 25.5543 67.7807 26.1716C66.1542 26.8594 64.4073 27.1905 62.6507 27.1439V0.245321C64.4043 0.196477 66.1493 0.515258 67.7807 1.18247C69.3145 1.76696 70.7104 2.68238 71.8758 3.86792C73.0412 5.05346 73.9494 6.48197 74.5401 8.05854C75.2059 9.8214 75.5345 11.7012 75.5076 13.5936ZM69.4122 13.5936C69.4197 12.538 69.251 11.4888 68.9136 10.4925C68.6103 9.58449 68.1406 8.74544 67.5304 8.02123C66.9382 7.32885 66.2117 6.77323 65.3982 6.39055C64.5355 5.98618 63.5977 5.7824 62.6507 5.79359C61.709 5.78116 60.7765 5.98505 59.9202 6.39055C59.1145 6.77767 58.3929 7.32937 57.7986 8.01245C57.1801 8.73054 56.7095 9.57137 56.4153 10.4837C56.087 11.482 55.9235 12.5304 55.9316 13.5849C55.9208 14.6734 56.0909 15.7558 56.4344 16.7848C56.7365 17.7035 57.2052 18.5542 57.8156 19.2912C58.7499 20.356 59.9857 21.0882 61.3463 21.383C62.707 21.6778 64.1229 21.5203 65.3918 20.9328C66.2046 20.5439 66.9306 19.985 67.524 19.2912C68.1449 18.5586 68.6207 17.707 68.9243 16.7848C69.2607 15.7574 69.4258 14.6783 69.4122 13.5936Z" fill="#E32967"/>
<path d="M97.9392 1.51167C98.6464 2.22862 99 3.20527 99 4.44163V26.7774C98.5108 26.8961 98.0147 26.9826 97.5149 27.0363C96.869 27.1221 96.2185 27.1653 95.5673 27.1658C94.9837 27.1731 94.4011 27.1149 93.8297 26.9924C93.3867 26.9227 92.9659 26.746 92.6013 26.4767C92.2503 26.202 91.9854 25.8264 91.8396 25.3969C91.6512 24.8138 91.565 24.2006 91.585 23.5862V6.51126H83.4508V26.7774C82.9762 26.8939 82.4951 26.9804 82.0103 27.0363C81.3494 27.1211 80.6841 27.1644 80.0181 27.1658C79.4478 27.1749 78.8784 27.1167 78.3208 26.9924C77.8627 26.9282 77.4262 26.7514 77.0479 26.4767C76.6975 26.2014 76.4327 25.826 76.2862 25.3969C76.0978 24.8138 76.0116 24.2006 76.0316 23.5862V4.44163C76.0316 3.20673 76.3852 2.23008 77.0924 1.51167C77.7996 0.793268 78.7635 0.433333 79.9841 0.43187H95.0666C96.2745 0.43187 97.232 0.791805 97.9392 1.51167Z" fill="#F7E200"/>
<path d="M5.80789 34.6198C5.80789 35.3137 5.68261 35.9133 5.43205 36.4187C5.18149 36.9241 4.83777 37.3139 4.40089 37.588C3.96402 37.8621 3.46503 37.9992 2.90395 37.9992C2.34286 37.9992 1.84388 37.8621 1.407 37.588C0.970124 37.3139 0.626404 36.9241 0.375843 36.4187C0.125281 35.9133 0 35.3137 0 34.6198C0 33.926 0.125281 33.3263 0.375843 32.8209C0.626404 32.3155 0.970124 31.9257 1.407 31.6516C1.84388 31.3775 2.34286 31.2404 2.90395 31.2404C3.46503 31.2404 3.96402 31.3775 4.40089 31.6516C4.83777 31.9257 5.18149 32.3155 5.43205 32.8209C5.68261 33.3263 5.80789 33.926 5.80789 34.6198ZM5.03693 34.6198C5.03693 34.0502 4.94164 33.5694 4.75104 33.1775C4.56258 32.7856 4.30666 32.489 3.98329 32.2877C3.66206 32.0864 3.30228 31.9857 2.90395 31.9857C2.50562 31.9857 2.14477 32.0864 1.82139 32.2877C1.50016 32.489 1.24424 32.7856 1.05364 33.1775C0.865188 33.5694 0.770959 34.0502 0.770959 34.6198C0.770959 35.1895 0.865188 35.6703 1.05364 36.0622C1.24424 36.4541 1.50016 36.7507 1.82139 36.952C2.14477 37.1533 2.50562 37.2539 2.90395 37.2539C3.30228 37.2539 3.66206 37.1533 3.98329 36.952C4.30666 36.7507 4.56258 36.4541 4.75104 36.0622C4.94164 35.6703 5.03693 35.1895 5.03693 34.6198Z" fill="#A6A6A6"/>
<path d="M6.51782 39.3227V37.2025H6.929C7.02965 37.0976 7.11638 36.9841 7.1892 36.862C7.26201 36.74 7.32518 36.5954 7.37872 36.4284C7.4344 36.2592 7.48152 36.0536 7.52007 35.8116C7.55861 35.5675 7.59288 35.273 7.62286 34.9282L7.7899 32.9751H10.9251V37.2025H11.6832V39.3227H10.9251V37.9092H7.27593V39.3227H6.51782ZM7.7899 37.2025H10.167V33.6818H8.49661L8.36812 34.9282C8.31458 35.4443 8.24819 35.8951 8.16896 36.2806C8.08972 36.6661 7.96337 36.9734 7.7899 37.2025Z" fill="#A6A6A6"/>
<path d="M13.4476 36.7914L15.8247 32.9751H16.6985V37.9092H15.9404V34.093L13.5761 37.9092H12.6895V32.9751H13.4476V36.7914Z" fill="#A6A6A6"/>
<path d="M21.3893 35.0952V35.802H18.6652V35.0952H21.3893ZM18.8451 32.9751V37.9092H18.087V32.9751H18.8451ZM21.9675 32.9751V37.9092H21.2094V32.9751H21.9675Z" fill="#A6A6A6"/>
<path d="M25.8962 37.9092V32.9751H29.7767V37.9092H29.0186V33.6818H26.6543V37.9092H25.8962Z" fill="#A6A6A6"/>
<path d="M33.1657 38.012C32.7203 38.012 32.3294 37.906 31.9932 37.694C31.6591 37.482 31.3979 37.1854 31.2094 36.8042C31.0231 36.423 30.9299 35.9776 30.9299 35.4679C30.9299 34.9539 31.0231 34.5052 31.2094 34.1219C31.3979 33.7386 31.6591 33.4409 31.9932 33.2289C32.3294 33.0169 32.7203 32.9109 33.1657 32.9109C33.6111 32.9109 34.0009 33.0169 34.335 33.2289C34.6712 33.4409 34.9325 33.7386 35.1188 34.1219C35.3073 34.5052 35.4015 34.9539 35.4015 35.4679C35.4015 35.9776 35.3073 36.423 35.1188 36.8042C34.9325 37.1854 34.6712 37.482 34.335 37.694C34.0009 37.906 33.6111 38.012 33.1657 38.012ZM33.1657 37.331C33.5041 37.331 33.7825 37.2443 34.0009 37.0708C34.2193 36.8974 34.381 36.6693 34.486 36.3866C34.5909 36.1039 34.6434 35.7977 34.6434 35.4679C34.6434 35.1381 34.5909 34.8308 34.486 34.5459C34.381 34.2611 34.2193 34.0309 34.0009 33.8553C33.7825 33.6797 33.5041 33.5919 33.1657 33.5919C32.8273 33.5919 32.5489 33.6797 32.3305 33.8553C32.1121 34.0309 31.9504 34.2611 31.8454 34.5459C31.7405 34.8308 31.688 35.1381 31.688 35.4679C31.688 35.7977 31.7405 36.1039 31.8454 36.3866C31.9504 36.6693 32.1121 36.8974 32.3305 37.0708C32.5489 37.2443 32.8273 37.331 33.1657 37.331Z" fill="#A6A6A6"/>
<path d="M39.5269 37.9092V33.669H38.2163C37.9208 33.669 37.6884 33.7375 37.5192 33.8746C37.35 34.0116 37.2654 34.2001 37.2654 34.4399C37.2654 34.6755 37.3415 34.8607 37.4935 34.9957C37.6477 35.1306 37.8587 35.198 38.1263 35.198H39.7197V35.9048H38.1263C37.7923 35.9048 37.5042 35.8459 37.2622 35.7281C37.0202 35.6103 36.8339 35.4422 36.7033 35.2237C36.5727 35.0032 36.5073 34.7419 36.5073 34.4399C36.5073 34.1358 36.5759 33.8746 36.7129 33.6561C36.85 33.4377 37.0459 33.2696 37.3008 33.1518C37.5578 33.034 37.8629 32.9751 38.2163 32.9751H40.2465V37.9092H39.5269ZM36.2375 37.9092L37.6381 35.455H38.4604L37.0599 37.9092H36.2375Z" fill="#A6A6A6"/>
<path d="M43.6427 38.012C43.1801 38.012 42.7818 37.9028 42.4477 37.6844C42.1137 37.4659 41.8567 37.1651 41.6768 36.7817C41.4969 36.3984 41.4069 35.9604 41.4069 35.4679C41.4069 34.9668 41.499 34.5245 41.6832 34.1412C41.8695 33.7557 42.1286 33.4548 42.4606 33.2385C42.7947 33.0201 43.1844 32.9109 43.6299 32.9109C43.9768 32.9109 44.2895 32.9751 44.5679 33.1036C44.8463 33.2321 45.0743 33.412 45.2521 33.6433C45.4298 33.8746 45.5401 34.1444 45.583 34.4528H44.8249C44.767 34.2279 44.6385 34.0288 44.4394 33.8553C44.2424 33.6797 43.9768 33.5919 43.6427 33.5919C43.3472 33.5919 43.0881 33.669 42.8653 33.8232C42.6448 33.9752 42.4724 34.1904 42.3482 34.4688C42.2261 34.7451 42.1651 35.0695 42.1651 35.4422C42.1651 35.8234 42.225 36.1553 42.3449 36.438C42.467 36.7207 42.6383 36.9402 42.8589 37.0965C43.0816 37.2529 43.3429 37.331 43.6427 37.331C43.8397 37.331 44.0186 37.2968 44.1792 37.2282C44.3398 37.1597 44.4758 37.0612 44.5871 36.9327C44.6985 36.8042 44.7777 36.65 44.8249 36.4701H45.583C45.5401 36.7614 45.4341 37.0237 45.2649 37.2571C45.0979 37.4884 44.8763 37.6726 44.6 37.8097C44.3259 37.9446 44.0068 38.012 43.6427 38.012Z" fill="#A6A6A6"/>
<path d="M52.0622 34.7355V35.4422H49.184V34.7355H52.0622Z" fill="#A6A6A6"/>
<path d="M57.9448 38.012C57.4994 38.012 57.1085 37.906 56.7723 37.694C56.4382 37.482 56.177 37.1854 55.9885 36.8042C55.8022 36.423 55.709 35.9776 55.709 35.4679C55.709 34.9539 55.8022 34.5052 55.9885 34.1219C56.177 33.7386 56.4382 33.4409 56.7723 33.2289C57.1085 33.0169 57.4994 32.9109 57.9448 32.9109C58.3903 32.9109 58.78 33.0169 59.1141 33.2289C59.4503 33.4409 59.7116 33.7386 59.8979 34.1219C60.0864 34.5052 60.1806 34.9539 60.1806 35.4679C60.1806 35.9776 60.0864 36.423 59.8979 36.8042C59.7116 37.1854 59.4503 37.482 59.1141 37.694C58.78 37.906 58.3903 38.012 57.9448 38.012ZM57.9448 37.331C58.2832 37.331 58.5616 37.2443 58.78 37.0708C58.9985 36.8974 59.1601 36.6693 59.2651 36.3866C59.37 36.1039 59.4225 35.7977 59.4225 35.4679C59.4225 35.1381 59.37 34.8308 59.2651 34.5459C59.1601 34.2611 58.9985 34.0309 58.78 33.8553C58.5616 33.6797 58.2832 33.5919 57.9448 33.5919C57.6064 33.5919 57.328 33.6797 57.1096 33.8553C56.8912 34.0309 56.7295 34.2611 56.6245 34.5459C56.5196 34.8308 56.4671 35.1381 56.4671 35.4679C56.4671 35.7977 56.5196 36.1039 56.6245 36.3866C56.7295 36.6693 56.8912 36.8974 57.1096 37.0708C57.328 37.2443 57.6064 37.331 57.9448 37.331Z" fill="#A6A6A6"/>
<path d="M60.811 39.3227V37.2025H61.2222C61.3228 37.0976 61.4096 36.9841 61.4824 36.862C61.5552 36.74 61.6184 36.5954 61.6719 36.4284C61.7276 36.2592 61.7747 36.0536 61.8133 35.8116C61.8518 35.5675 61.8861 35.273 61.9161 34.9282L62.0831 32.9751H65.2183V37.2025H65.9764V39.3227H65.2183V37.9092H61.5691V39.3227H60.811ZM62.0831 37.2025H64.4602V33.6818H62.7898L62.6613 34.9282C62.6078 35.4443 62.5414 35.8951 62.4622 36.2806C62.3829 36.6661 62.2566 36.9734 62.0831 37.2025Z" fill="#A6A6A6"/>
<path d="M67.7408 36.7914L70.1179 32.9751H70.9917V37.9092H70.2336V34.093L67.8693 37.9092H66.9827V32.9751H67.7408V36.7914Z" fill="#A6A6A6"/>
<path d="M75.6825 35.0952V35.802H72.9584V35.0952H75.6825ZM73.1383 32.9751V37.9092H72.3802V32.9751H73.1383ZM76.2607 32.9751V37.9092H75.5026V32.9751H76.2607Z" fill="#A6A6A6"/>
<path d="M80.1894 37.9092V32.9751H84.0699V37.9092H83.3118V33.6818H80.9475V37.9092H80.1894Z" fill="#A6A6A6"/>
<path d="M85.766 39.7595C85.6375 39.7595 85.5229 39.7488 85.4223 39.7274C85.3216 39.7081 85.252 39.6889 85.2135 39.6696L85.4062 39.0014C85.5904 39.0486 85.7532 39.0657 85.8945 39.0528C86.0358 39.04 86.1611 38.9768 86.2703 38.8633C86.3817 38.7519 86.4834 38.571 86.5755 38.3204L86.7169 37.9349L84.8923 32.9751H85.7146L87.0766 36.907H87.128L88.4901 32.9751H89.3124L87.218 38.6288C87.1237 38.8837 87.007 39.0946 86.8678 39.2616C86.7286 39.4308 86.5669 39.5561 86.3828 39.6375C86.2007 39.7189 85.9952 39.7595 85.766 39.7595Z" fill="#A6A6A6"/>
<path d="M90.0304 33.6818V32.9751H94.0394V33.6818H92.4203V37.9092H91.6622V33.6818H90.0304Z" fill="#A6A6A6"/>
<path d="M95.8005 34.7612H97.214C97.7922 34.7612 98.2344 34.9079 98.5406 35.2013C98.8469 35.4946 99 35.8662 99 36.3159C99 36.6115 98.9315 36.8802 98.7944 37.1222C98.6574 37.3621 98.456 37.5537 98.1905 37.6972C97.9249 37.8386 97.5994 37.9092 97.214 37.9092H95.1452V32.9751H95.9033V37.2025H97.214C97.5138 37.2025 97.76 37.1233 97.9528 36.9648C98.1455 36.8063 98.2419 36.6029 98.2419 36.3545C98.2419 36.0932 98.1455 35.8801 97.9528 35.7152C97.76 35.5503 97.5138 35.4679 97.214 35.4679H95.8005V34.7612Z" fill="#A6A6A6"/>
</svg>
